<?xml version="1.0" encoding="UTF-8"?>
<!DOCTYPE svg PUBLIC "-//W3C//DTD SVG 1.1//EN" "http://www.w3.org/Graphics/SVG/1.1/DTD/svg11.dtd">
<svg version="1.1" xmlns="http://www.w3.org/2000/svg" xmlns:xlink="http://www.w3.org/1999/xlink" x="0" y="0" width="456" height="458" viewBox="0, 0, 456, 458">
  <g id="Image">
    <path d="M227.661,0.812 L454.004,78.171 C454.004,78.171 454.004,378.975 454.004,379.707 C454.004,380.439 227.881,456.922 227.149,456.922 C226.417,456.922 1.576,379.571 1.576,379.571 C1.576,379.571 1.623,77.979 1.623,77.979 C1.623,77.979 227.661,0.812 227.661,0.812 L227.661,0.812 z M448.568,88.189 L231.148,162.311 L231.359,448.767 L448.147,373.838 L448.568,88.189 z M7.223,88.189 L7.393,374.123 L221.708,447.154 L222.561,161.515 L7.223,88.189 z M227.249,7.646 C227.249,7.646 12.489,79.735 12.489,79.735 C12.489,79.735 226.494,153.712 226.494,153.712 C226.494,153.712 443.141,79.735 443.141,79.735 L227.249,7.646 z" fill="#FF4500"/>
  </g>
</svg>
